<?xml version="1.0" encoding="UTF-8" standalone="no"?>
<svg
   id="Layer_2"
   viewBox="0 0 586.52 384.71"
   version="1.1"
   sodipodi:docname="Asset 1.svg"
   inkscape:version="1.3.2 (091e20ef0f, 2023-11-25)"
   xmlns:inkscape="http://www.inkscape.org/namespaces/inkscape"
   xmlns:sodipodi="http://sodipodi.sourceforge.net/DTD/sodipodi-0.dtd"
   xmlns="http://www.w3.org/2000/svg"
   xmlns:svg="http://www.w3.org/2000/svg">
  <sodipodi:namedview
     id="namedview10"
     pagecolor="#ffffff"
     bordercolor="#000000"
     borderopacity="0.25"
     inkscape:showpageshadow="2"
     inkscape:pageopacity="0.0"
     inkscape:pagecheckerboard="0"
     inkscape:deskcolor="#d1d1d1"
     inkscape:zoom="1.4406884"
     inkscape:cx="186.36924"
     inkscape:cy="130.49317"
     inkscape:window-width="1920"
     inkscape:window-height="1052"
     inkscape:window-x="0"
     inkscape:window-y="0"
     inkscape:window-maximized="1"
     inkscape:current-layer="g10" />
  <defs
     id="defs1">
    <style
       id="style1">
      .cls-1 {
        letter-spacing: .18em;
      }

      .cls-2 {
        fill: #d7b286;
      }

      .cls-3 {
        letter-spacing: .14em;
      }

      .cls-4 {
        font-family: MongolianBaiti, 'Mongolian Baiti';
        font-size: 70px;
        letter-spacing: .23em;
      }

      .cls-5 {
        letter-spacing: .23em;
      }

      .cls-5, .cls-6 {
        font-family: Navigo-ExtraLight, Navigo;
        font-size: 28px;
        font-weight: 200;
      }

      .cls-7 {
        letter-spacing: .18em;
      }

      .cls-8 {
        letter-spacing: .22em;
      }

      .cls-9 {
        letter-spacing: .22em;
      }

      .cls-10 {
        letter-spacing: .23em;
      }
    </style>
  </defs>
  <g
     id="Capa_1">
    <g
       id="g10">
      <path
         class="cls-2"
         d="M219.69,28.28c-4.91,16.17-9.24,31.5-14.24,46.61-4.64,14.05-9.93,27.89-15.05,41.78-3.52,9.55-2.9,12.18,5.24,18.24,2.93,2.18,6.02,4.17,9.13,6.1,3.83,2.38,7.2,1.46,9.41-2.26,8.4-14.18,16.73-28.39,24.87-42.72,3.15-5.55,5.92-5.94,9.76-.67,3.06,4.2,3.21,8.62.62,13.1-6.17,10.66-12.36,21.31-18.57,31.94-1.43,2.44-3.06,4.77-4.41,7.26-2.49,4.6-1.75,7.45,2.33,10.84,5.64,4.67,11.23,9.4,16.76,14.19,3.13,2.71,4.39,5.9,1.57,9.61-2.75,3.62-6.52,4.31-10.55,1.49-4.63-3.24-9.14-6.69-13.39-10.41-6.34-5.55-8.21-5.16-13.31,1.75-8.78,11.9-17.14,24.27-27.2,35.01-14,14.96-31.1,25.52-51.93,28.68-11.62,1.76-23.18,1.32-34.61-1.45-16.37-3.96-32.38-8.88-47.18-17.21-33.06-18.61-43.93-63.01-22.62-93.38,9.01-12.84,21.91-20.08,36.72-24.38,21.32-6.18,42.54-4.59,63.41,1.66,12.71,3.8,25.07,8.81,37.46,13.61,6.54,2.53,8.8,2.13,11.55-5.52,7.58-21.12,14.99-42.31,21.91-63.66,4.3-13.27,7.54-26.89,11.37-40.31,1.04-3.65,2.01-7.5,6.93-8.08,5.08-.6,7.63,2.47,9.75,6.25,9.44,16.85,18.8,33.74,28.32,50.55.99,1.74,2.8,3.01,4.23,4.5,1.43-1.5,3.21-2.81,4.24-4.55,7.22-12.17,14.29-24.43,21.42-36.65.67-1.15,1.44-2.25,2.24-3.31,4.64-6.14,9.86-6.35,13.96.17,8.16,12.96,15.91,26.17,23.66,39.37,15.59,26.56,31.03,53.22,46.61,79.79,4.26,7.26,6.95,7.71,14.07,2.97,15.11-10.07,15.05-10.87,9.27-27.9-8.54-25.18-16.48-50.57-24.76-75.84-.58-1.76-1.87-3.29-2.82-4.93-1.12,1.32-2.49,2.5-3.32,3.98-5.61,10.02-11.14,20.09-16.61,30.19-1.94,3.58-4.41,3.65-7.33,1.4-4.29-3.3-5.73-8.79-3-13.91,8.39-15.71,17.02-31.3,25.61-46.91,1.88-3.42,4.57-5.76,8.84-5.19,4.38.59,5.9,3.92,6.94,7.57,4.37,15.35,8.25,30.85,13.15,46.03,6.39,19.77,13.48,39.31,20.47,58.88,2.58,7.23,4.82,7.54,12.18,4.79,14.45-5.41,28.84-11.28,43.73-15.19,20.07-5.27,40.58-5.26,60.52,1.3,24.79,8.15,39.95,25.63,43.08,51.28,3.33,27.34-7.69,49.25-31.34,63.86-17.58,10.86-36.7,18.21-57.38,20.44-25.61,2.76-48.87-3.02-68.9-20.04-14-11.89-25.04-26.18-34.99-41.44-5.51-8.45-7.04-11.91-16.28-2.79-3.41,3.36-7.51,6.06-11.49,8.79-4.37,3.01-8.11,2.43-10.99-1.29-2.53-3.26-1.78-7.15,2.14-10.46,5.21-4.4,10.51-8.71,15.73-13.11,4.9-4.13,5.35-6.19,2.22-11.57-8.96-15.4-17.98-30.76-27.02-46.11-2.63-4.47-4.23-4.39-6.82.26-6.87,12.37-13.67,24.78-20.56,37.15-1.46,2.61-3.02,5.19-4.77,7.61-4.31,5.96-9.41,6.04-13.66-.06-2.94-4.22-5.33-8.83-7.85-13.33-18.95-33.85-37.86-67.72-56.79-101.58-.4-.71-.85-1.39-1.71-2.81ZM470.18,222.96c-5.43-4.48-10.46-8.32-15.13-12.54-17.05-15.43-28.99-34.64-39.93-54.56-2.64-4.81-2.04-7.21,2.49-9.9,4.49-2.67,7.99-1.99,10.71,2.28,1.7,2.67,3.13,5.5,4.71,8.24,9.63,16.63,20.25,32.51,35.09,45.09,10.14,8.6,21.89,13.59,35.14,13.47,12.94-.11,24.15-5.45,33.85-14.03,28.55-25.24,21.75-64.89-8.82-80.39-16.55-8.39-33.92-7.24-51.3-4.7-22.85,3.33-43.91,12-63.86,23.36-8.09,4.61-15.85,9.82-23.68,14.87-3.35,2.17-5.68,5.05-2.99,9.16,10.94,16.76,22.05,33.46,38.32,45.69,13.19,9.91,27.53,16.71,45.4,13.98ZM118.13,222.95c3.4,0,6.82.28,10.18-.05,16.37-1.61,29.91-9.55,40.83-21.09,10.02-10.58,18.56-22.57,27.54-34.1,5.74-7.37,5.3-10.9-2.84-15.66-13.34-7.79-26.71-15.67-40.69-22.15-24.41-11.31-49.81-18.17-77.29-14.66-25.09,3.2-48.78,24.84-44.7,53.92,4.4,31.36,44.28,60.75,79.46,37.78,12.79-8.35,22.36-19.83,30.75-32.32,5.74-8.55,10.77-17.58,16.23-26.33,2.89-4.63,6.47-5.28,10.89-2.28,4.35,2.96,4.96,5.1,2.2,10.09-13.75,24.88-29.05,48.54-52.54,66.84ZM318.09,79.86c-.69-1.86-1.13-3.84-2.09-5.52-6.18-10.83-12.42-21.64-18.76-32.38-2.86-4.84-5.23-4.8-8.21.14-6.36,10.54-12.34,21.31-18.96,31.68-2.85,4.46-2.7,8.04-.17,12.41,6.5,11.23,12.68,22.64,19,33.97,3.06,5.49,4.95,5.57,8.06.02,6.5-11.61,12.87-23.3,19.22-34.99.85-1.56,1.23-3.38,1.91-5.32Z"
         id="path1" />
      <path
         d="m 6.79,0 v -49.98 h 6.3 V -5.6 H 34.93 V 0 Z m 80.710014,0 h -27.93 v -49.98 h 27.93 v 5.53 h -21.63 v 15.61 h 20.37 v 5.46 h -20.37 v 17.85 h 21.63 z"
         id="text1"
         class="cls-4"
         transform="translate(0 321.83)"
         aria-label="LE" />
      <path
         d="M 28.84,0 12.39,-43.82 h -0.28 q 0.21,2.17 0.35,5.88 0.14,3.64 0.14,7.63 V 0 H 6.79 v -49.98 h 9.31 l 15.4,40.95 h 0.28 L 47.46,-49.98 H 56.7 V 0 h -6.23 v -30.73 q 0,-3.64 0.14,-7.21 0.21,-3.57 0.35,-5.81 H 50.68 L 34.02,0 Z m 88.89997,0 -6.02,-15.47 H 91.909973 l -5.95,15.47 h -6.37 l 19.53,-50.19 h 5.669997 l 19.46,50.19 z m -13.51,-36.19 q -0.21,-0.56 -0.7,-2.03 -0.49,-1.47 -0.98,-3.01 -0.42,-1.61 -0.7,-2.45 -0.49,2.17 -1.12,4.27 -0.63,2.03 -1.049997,3.22 l -5.67,15.12 h 15.819997 z m 56.77,-13.79 q 9.31,0 13.72,3.57 4.48,3.5 4.48,10.64 0,3.99 -1.47,6.65 -1.47,2.66 -3.78,4.27 -2.24,1.54 -4.76,2.45 l 13.72,22.4 h -7.35 l -12.11,-20.65 h -9.94 V 0 h -6.3 v -49.98 z m -0.35,5.46 h -7.14 v 18.55 h 7.49 q 6.09,0 8.89,-2.38 2.8,-2.45 2.8,-7.14 0,-4.9 -2.94,-6.93 -2.94,-2.1 -9.1,-2.1 z M 220.91995,0 h -18.06 v -3.64 l 5.88,-1.33 v -39.97 l -5.88,-1.4 v -3.64 h 18.06 v 3.64 l -5.88,1.4 v 39.97 l 5.88,1.33 z M 278.04,0 272.02,-15.47 H 252.21 L 246.26,0 h -6.37 l 19.53,-50.19 h 5.67 L 284.55,0 Z m -13.51,-36.19 q -0.21,-0.56 -0.7,-2.03 -0.49,-1.47 -0.98,-3.01 -0.42,-1.61 -0.7,-2.45 -0.49,2.17 -1.12,4.27 -0.63,2.03 -1.05,3.22 l -5.67,15.12 h 15.82 z m 63.27998,9.8 h 17.29 v 24.5 q -4.06,1.33 -8.19,1.96 -4.13,0.63 -9.38,0.63 -7.77,0 -13.09,-3.08 -5.32,-3.15 -8.12,-8.89 -2.73,-5.81 -2.73,-13.72 0,-7.84 3.08,-13.58 3.08,-5.74 8.82,-8.89 5.81,-3.22 14,-3.22 4.2,0 7.91,0.77 3.78,0.77 7,2.17 l -2.38,5.46 q -2.66,-1.19 -6.02,-2.03 -3.29,-0.84 -6.86,-0.84 -8.96,0 -14,5.39 -4.97,5.39 -4.97,14.77 0,5.95 1.89,10.57 1.96,4.55 6.09,7.14 4.13,2.52 10.85,2.52 3.29,0 5.6,-0.35 2.31,-0.35 4.2,-0.84 v -14.84 h -10.99 z M 401.1,0 h -27.93 v -49.98 h 27.93 v 5.53 h -21.63 v 15.61 h 20.37 v 5.46 h -20.37 v 17.85 h 21.63 z"
         id="text2"
         class="cls-4"
         transform="translate(155.24 323.06)"
         aria-label="MARIAGE" />
      <g
         id="text6"
         class="cls-6"
         style="font-weight:200;font-size:28px;font-family:Navigo-ExtraLight, Navigo"
         transform="translate(131.36 376.67)"
         aria-label="BODAS">
        <path
           d="m 8.26,-19.992 q 3.696,0 5.348,1.176 1.68,1.176 1.68,3.668 0,1.708 -1.008,2.996 -1.008,1.26 -2.912,1.596 v 0.056 q 2.352,0.364 3.388,1.596 1.064,1.232 1.064,3.22 0,2.016 -0.924,3.276 Q 14,-1.176 12.404,-0.588 10.808,0 8.736,0 h -5.88 v -19.992 z m 0.308,9.016 q 2.884,0 4.228,-1.036 1.344,-1.036 1.344,-3.052 0,-2.1 -1.4,-2.996 -1.4,-0.924 -4.508,-0.924 H 3.948 v 8.008 z m -4.62,0.98 V -0.98 H 8.82 q 2.828,0 4.34,-1.148 1.512,-1.176 1.512,-3.584 0,-2.38 -1.596,-3.332 Q 11.48,-9.996 8.54,-9.996 Z m 39.368009,-0.028 q 0,3.024 -0.98,5.348 -0.98,2.324 -2.968,3.64 -1.96,1.316 -4.928,1.316 -2.94,0 -4.928,-1.316 -1.96,-1.316 -2.94,-3.64 -0.98,-2.324 -0.98,-5.376 0,-3.024 1.008,-5.32 1.036,-2.324 3.052,-3.612 2.016,-1.316 4.928,-1.316 4.2,0 6.468,2.744 2.268,2.716 2.268,7.532 z m -16.604,-0.028 q 0,2.744 0.84,4.844 0.84,2.1 2.548,3.304 1.736,1.176 4.368,1.176 2.632,0 4.34,-1.176 1.708,-1.176 2.52,-3.248 0.84,-2.1 0.84,-4.872 0,-4.396 -1.96,-6.832 -1.932,-2.436 -5.628,-2.436 -2.66,0 -4.396,1.176 -1.736,1.176 -2.604,3.276 -0.868,2.072 -0.868,4.788 z"
           id="path16" />
        <path
           d="m 71.398,-10.192 q 0,5.04 -2.604,7.616 Q 66.19,0 61.01,0 h -4.564 v -19.992 h 5.208 q 4.844,0 7.28,2.52 2.464,2.492 2.464,7.28 z m -1.12,0.028 q 0,-4.34 -2.156,-6.58 -2.156,-2.24 -6.776,-2.24 h -3.808 v 17.976 h 3.472 q 9.268,0 9.268,-9.156 z"
           id="path17" />
        <path
           d="m 95.894003,0 -2.8,-7.308 h -8.54 L 81.698003,0 h -1.148 l 7.868,-20.048 h 1.036 L 97.042003,0 Z m -6.104,-16.184 q -0.14,-0.476 -0.392,-1.148 -0.252,-0.7 -0.504,-1.428 -0.196,0.672 -0.448,1.372 -0.252,0.672 -0.476,1.204 l -3.024,7.868 h 7.756 z"
           id="path18" />
        <path
           d="m 118.436,-5.096 q 0,1.792 -0.924,2.996 -0.896,1.176 -2.436,1.792 -1.54,0.588 -3.444,0.588 -1.876,0 -3.164,-0.252 -1.26,-0.252 -2.268,-0.588 v -1.148 q 1.092,0.42 2.464,0.7 1.372,0.28 3.052,0.28 1.568,0 2.828,-0.448 1.26,-0.476 2.016,-1.428 0.756,-0.98 0.756,-2.464 0,-1.316 -0.644,-2.128 -0.616,-0.812 -1.82,-1.372 -1.204,-0.588 -2.94,-1.176 -1.624,-0.532 -2.884,-1.176 -1.232,-0.644 -1.932,-1.652 -0.672,-1.008 -0.672,-2.66 0,-1.652 0.84,-2.772 0.868,-1.12 2.296,-1.68 1.428,-0.588 3.22,-0.588 2.772,0 5.152,1.064 l -0.42,0.952 q -1.232,-0.56 -2.436,-0.784 -1.176,-0.224 -2.352,-0.224 -1.428,0 -2.604,0.448 -1.176,0.42 -1.876,1.316 -0.7,0.868 -0.7,2.24 0,1.428 0.644,2.268 0.644,0.84 1.764,1.372 1.148,0.504 2.632,1.008 1.764,0.56 3.08,1.232 1.316,0.644 2.044,1.652 0.728,0.98 0.728,2.632 z"
           id="path19" />
      </g>
      <path
         d="m 22.232007,-20.3 q 1.988,0 3.22,1.092 1.232,1.092 1.232,2.996 0,1.904 -1.26,3.136 -1.26,1.204 -3.36,2.24 l 6.524,6.552 q 0.812,-0.98 1.428,-2.268 0.644,-1.288 0.98,-2.8 h 1.12 q -0.42,1.736 -1.148,3.192 -0.7,1.428 -1.68,2.632 l 3.472,3.528 h -1.456 l -2.716,-2.828 q -1.288,1.372 -2.94,2.24 -1.624,0.868 -4.088,0.868 -2.716,0 -4.424,-1.372 -1.708,-1.372 -1.708,-3.948 0,-1.54 0.588,-2.576 0.588,-1.064 1.68,-1.848 1.12,-0.812 2.688,-1.596 -1.344,-1.372 -2.128,-2.464 -0.756,-1.092 -0.756,-2.576 0,-1.904 1.288,-3.052 1.316,-1.148 3.444,-1.148 z m -0.028,0.98 q -1.68,0 -2.66,0.868 -0.952,0.868 -0.952,2.352 0,1.232 0.7,2.24 0.7,1.008 2.016,2.324 2.044,-0.924 3.164,-1.988 1.12,-1.092 1.12,-2.688 0,-1.456 -0.924,-2.268 -0.924,-0.84 -2.464,-0.84 z m -1.12,8.96 q -1.456,0.728 -2.464,1.428 -1.008,0.7 -1.54,1.624 -0.532,0.896 -0.532,2.24 0,2.072 1.372,3.22 1.4,1.12 3.668,1.12 2.212,0 3.64,-0.756 1.456,-0.756 2.66,-2.016 z"
         id="text7"
         class="cls-5"
         transform="translate(257.67 377.24)"
         aria-label=" &amp;  " />
      <g
         id="text10"
         class="cls-6"
         style="font-weight:200;font-size:28px;font-family:Navigo-ExtraLight, Navigo"
         transform="translate(308.38 377.24)"
         aria-label="EVENTOS">
        <path
           d="M 13.72,0 H 2.856 V -19.992 H 13.72 v 1.008 H 3.948 v 7.952 h 9.212 v 1.008 H 3.948 v 9.016 H 13.72 Z M 36.456018,-19.992 28.980018,0 h -1.064 l -7.448,-19.992 h 1.148 l 5.74,15.344 q 0.336,0.896 0.616,1.736 0.28,0.812 0.504,1.512 0.196,-0.7 0.448,-1.456 0.28,-0.784 0.644,-1.792 l 5.712,-15.344 z M 55.215995,0 h -10.864 v -19.992 h 10.864 v 1.008 h -9.772 v 7.952 h 9.212 v 1.008 h -9.212 v 9.016 h 9.772 z m 23.772013,0 h -1.008 l -12.124,-17.976 h -0.056 q 0.028,1.148 0.028,2.24 0.028,1.064 0.028,2.268 V 0 h -1.036 v -19.992 h 1.036 l 12.068,17.92 h 0.056 q 0,-0.952 -0.028,-2.156 -0.028,-1.204 -0.028,-2.24 v -13.524 h 1.064 z"
           id="path20" />
        <path
           d="m 99.425998,0 h -1.092 v -18.984 h -6.552 v -1.008 H 106.006 v 1.008 h -6.580002 z"
           id="path21" />
        <path
           d="m 132.358,-10.024 q 0,3.024 -0.98,5.348 -0.98,2.324 -2.968,3.64 -1.96,1.316 -4.928,1.316 -2.94,0 -4.928,-1.316 -1.96,-1.316 -2.94,-3.64 -0.98,-2.324 -0.98,-5.376 0,-3.024 1.008,-5.32 1.036,-2.324 3.052,-3.612 2.016,-1.316 4.928,-1.316 4.2,0 6.468,2.744 2.268,2.716 2.268,7.532 z m -16.604,-0.028 q 0,2.744 0.84,4.844 0.84,2.1 2.548,3.304 1.736,1.176 4.368,1.176 2.632,0 4.34,-1.176 1.708,-1.176 2.52,-3.248 0.84,-2.1 0.84,-4.872 0,-4.396 -1.96,-6.832 -1.932,-2.436 -5.628,-2.436 -2.66,0 -4.396,1.176 -1.736,1.176 -2.604,3.276 -0.868,2.072 -0.868,4.788 z m 37.18403,4.956 q 0,1.792 -0.924,2.996 -0.896,1.176 -2.436,1.792 -1.54,0.588 -3.444,0.588 -1.876,0 -3.164,-0.252 -1.26,-0.252 -2.268,-0.588 v -1.148 q 1.092,0.42 2.464,0.7 1.372,0.28 3.052,0.28 1.568,0 2.828,-0.448 1.26,-0.476 2.016,-1.428 0.756,-0.98 0.756,-2.464 0,-1.316 -0.644,-2.128 -0.616,-0.812 -1.82,-1.372 -1.204,-0.588 -2.94,-1.176 -1.624,-0.532 -2.884,-1.176 -1.232,-0.644 -1.932,-1.652 -0.672,-1.008 -0.672,-2.66 0,-1.652 0.84,-2.772 0.868,-1.12 2.296,-1.68 1.428,-0.588 3.22,-0.588 2.772,0 5.152,1.064 l -0.42,0.952 q -1.232,-0.56 -2.436,-0.784 -1.176,-0.224 -2.352,-0.224 -1.428,0 -2.604,0.448 -1.176,0.42 -1.876,1.316 -0.7,0.868 -0.7,2.24 0,1.428 0.644,2.268 0.644,0.84 1.764,1.372 1.148,0.504 2.632,1.008 1.764,0.56 3.08,1.232 1.316,0.644 2.044,1.652 0.728,0.98 0.728,2.632 z"
           id="path22" />
      </g>
    </g>
  </g>
</svg>
