<?xml version="1.0" encoding="UTF-8"?>
<svg id="Layer_2" xmlns="http://www.w3.org/2000/svg" viewBox="0 0 586.52 384.71">
  <defs>
    <style>
      .cls-1 {
        letter-spacing: .18em;
      }

      .cls-2 {
        fill: #d7b286;
      }

      .cls-3 {
        letter-spacing: .14em;
      }

      .cls-4 {
        font-family: MongolianBaiti, 'Mongolian Baiti';
        font-size: 70px;
        letter-spacing: .23em;
      }

      .cls-5 {
        letter-spacing: .23em;
      }

      .cls-5, .cls-6 {
        font-family: Navigo-ExtraLight, Navigo;
        font-size: 28px;
        font-weight: 200;
      }

      .cls-7 {
        letter-spacing: .18em;
      }

      .cls-8 {
        letter-spacing: .22em;
      }

      .cls-9 {
        letter-spacing: .22em;
      }

      .cls-10 {
        letter-spacing: .23em;
      }
    </style>
  </defs>
  <g id="Capa_1">
    <g>
      <path class="cls-2" d="M219.69,28.28c-4.91,16.17-9.24,31.5-14.24,46.61-4.64,14.05-9.93,27.89-15.05,41.78-3.52,9.55-2.9,12.18,5.24,18.24,2.93,2.18,6.02,4.17,9.13,6.1,3.83,2.38,7.2,1.46,9.41-2.26,8.4-14.18,16.73-28.39,24.87-42.72,3.15-5.55,5.92-5.94,9.76-.67,3.06,4.2,3.21,8.62.62,13.1-6.17,10.66-12.36,21.31-18.57,31.94-1.43,2.44-3.06,4.77-4.41,7.26-2.49,4.6-1.75,7.45,2.33,10.84,5.64,4.67,11.23,9.4,16.76,14.19,3.13,2.71,4.39,5.9,1.57,9.61-2.75,3.62-6.52,4.31-10.55,1.49-4.63-3.24-9.14-6.69-13.39-10.41-6.34-5.55-8.21-5.16-13.31,1.75-8.78,11.9-17.14,24.27-27.2,35.01-14,14.96-31.1,25.52-51.93,28.68-11.62,1.76-23.18,1.32-34.61-1.45-16.37-3.96-32.38-8.88-47.18-17.21-33.06-18.61-43.93-63.01-22.62-93.38,9.01-12.84,21.91-20.08,36.72-24.38,21.32-6.18,42.54-4.59,63.41,1.66,12.71,3.8,25.07,8.81,37.46,13.61,6.54,2.53,8.8,2.13,11.55-5.52,7.58-21.12,14.99-42.31,21.91-63.66,4.3-13.27,7.54-26.89,11.37-40.31,1.04-3.65,2.01-7.5,6.93-8.08,5.08-.6,7.63,2.47,9.75,6.25,9.44,16.85,18.8,33.74,28.32,50.55.99,1.74,2.8,3.01,4.23,4.5,1.43-1.5,3.21-2.81,4.24-4.55,7.22-12.17,14.29-24.43,21.42-36.65.67-1.15,1.44-2.25,2.24-3.31,4.64-6.14,9.86-6.35,13.96.17,8.16,12.96,15.91,26.17,23.66,39.37,15.59,26.56,31.03,53.22,46.61,79.79,4.26,7.26,6.95,7.71,14.07,2.97,15.11-10.07,15.05-10.87,9.27-27.9-8.54-25.18-16.48-50.57-24.76-75.84-.58-1.76-1.87-3.29-2.82-4.93-1.12,1.32-2.49,2.5-3.32,3.98-5.61,10.02-11.14,20.09-16.61,30.19-1.94,3.58-4.41,3.65-7.33,1.4-4.29-3.3-5.73-8.79-3-13.91,8.39-15.71,17.02-31.3,25.61-46.91,1.88-3.42,4.57-5.76,8.84-5.19,4.38.59,5.9,3.92,6.94,7.57,4.37,15.35,8.25,30.85,13.15,46.03,6.39,19.77,13.48,39.31,20.47,58.88,2.58,7.23,4.82,7.54,12.18,4.79,14.45-5.41,28.84-11.28,43.73-15.19,20.07-5.27,40.58-5.26,60.52,1.3,24.79,8.15,39.95,25.63,43.08,51.28,3.33,27.34-7.69,49.25-31.34,63.86-17.58,10.86-36.7,18.21-57.38,20.44-25.61,2.76-48.87-3.02-68.9-20.04-14-11.89-25.04-26.18-34.99-41.44-5.51-8.45-7.04-11.91-16.28-2.79-3.41,3.36-7.51,6.06-11.49,8.79-4.37,3.01-8.11,2.43-10.99-1.29-2.53-3.26-1.78-7.15,2.14-10.46,5.21-4.4,10.51-8.71,15.73-13.11,4.9-4.13,5.35-6.19,2.22-11.57-8.96-15.4-17.98-30.76-27.02-46.11-2.63-4.47-4.23-4.39-6.82.26-6.87,12.37-13.67,24.78-20.56,37.15-1.46,2.61-3.02,5.19-4.77,7.61-4.31,5.96-9.41,6.04-13.66-.06-2.94-4.22-5.33-8.83-7.85-13.33-18.95-33.85-37.86-67.72-56.79-101.58-.4-.71-.85-1.39-1.71-2.81ZM470.18,222.96c-5.43-4.48-10.46-8.32-15.13-12.54-17.05-15.43-28.99-34.64-39.93-54.56-2.64-4.81-2.04-7.21,2.49-9.9,4.49-2.67,7.99-1.99,10.71,2.28,1.7,2.67,3.13,5.5,4.71,8.24,9.63,16.63,20.25,32.51,35.09,45.09,10.14,8.6,21.89,13.59,35.14,13.47,12.94-.11,24.15-5.45,33.85-14.03,28.55-25.24,21.75-64.89-8.82-80.39-16.55-8.39-33.92-7.24-51.3-4.7-22.85,3.33-43.91,12-63.86,23.36-8.09,4.61-15.85,9.82-23.68,14.87-3.35,2.17-5.68,5.05-2.99,9.16,10.94,16.76,22.05,33.46,38.32,45.69,13.19,9.91,27.53,16.71,45.4,13.98ZM118.13,222.95c3.4,0,6.82.28,10.18-.05,16.37-1.61,29.91-9.55,40.83-21.09,10.02-10.58,18.56-22.57,27.54-34.1,5.74-7.37,5.3-10.9-2.84-15.66-13.34-7.79-26.71-15.67-40.69-22.15-24.41-11.31-49.81-18.17-77.29-14.66-25.09,3.2-48.78,24.84-44.7,53.92,4.4,31.36,44.28,60.75,79.46,37.78,12.79-8.35,22.36-19.83,30.75-32.32,5.74-8.55,10.77-17.58,16.23-26.33,2.89-4.63,6.47-5.28,10.89-2.28,4.35,2.96,4.96,5.1,2.2,10.09-13.75,24.88-29.05,48.54-52.54,66.84ZM318.09,79.86c-.69-1.86-1.13-3.84-2.09-5.52-6.18-10.83-12.42-21.64-18.76-32.38-2.86-4.84-5.23-4.8-8.21.14-6.36,10.54-12.34,21.31-18.96,31.68-2.85,4.46-2.7,8.04-.17,12.41,6.5,11.23,12.68,22.64,19,33.97,3.06,5.49,4.95,5.57,8.06.02,6.5-11.61,12.87-23.3,19.22-34.99.85-1.56,1.23-3.38,1.91-5.32Z"/>
      <text class="cls-4" transform="translate(0 321.83)"><tspan x="0" y="0">LE </tspan></text>
      <text class="cls-4" transform="translate(155.24 323.06)"><tspan x="0" y="0">MARIAGE</tspan></text>
      <text class="cls-6" transform="translate(131.36 376.67)"><tspan class="cls-10" x="0" y="0">BO</tspan><tspan class="cls-8" x="53.59" y="0">D</tspan><tspan class="cls-9" x="80.55" y="0">A</tspan><tspan class="cls-10" x="104.66" y="0">S</tspan></text>
      <text class="cls-5" transform="translate(257.67 377.24)"><tspan x="0" y="0" xml:space="preserve"> &amp;  </tspan></text>
      <text class="cls-6" transform="translate(308.38 377.24)"><tspan class="cls-1" x="0" y="0">EVEN</tspan><tspan class="cls-3" x="91.67" y="0">T</tspan><tspan class="cls-7" x="112.87" y="0">OS</tspan></text>
    </g>
  </g>
</svg>